<?xml version="1.0" encoding="utf-8"?>
<!-- Generator: Adobe Illustrator 15.0.2, SVG Export Plug-In . SVG Version: 6.00 Build 0)  -->
<!DOCTYPE svg PUBLIC "-//W3C//DTD SVG 1.1//EN" "http://www.w3.org/Graphics/SVG/1.1/DTD/svg11.dtd">
<svg version="1.1" id="Layer_1" xmlns="http://www.w3.org/2000/svg" xmlns:xlink="http://www.w3.org/1999/xlink" x="0px" y="0px"
	 width="170.08px" height="99.21px" viewBox="0 0 170.08 99.21" enable-background="new 0 0 170.08 99.21" xml:space="preserve">
<g>
	<g>
		<path fill="#1C8ECE" d="M129.35,72.576c-8.148,5.139-18.537,8.219-29.85,8.219c-26.175,0-47.393-16.483-47.393-36.813
			S73.325,7.171,99.5,7.171c26.174,0,47.391,16.482,47.391,36.812c0,7.41-2.817,14.306-7.666,20.082l21.887,28.148L129.35,72.576z"
			/>
		<path fill="#575756" d="M34.684,69.785c6.491,4.094,14.764,6.545,23.774,6.545c20.846,0,37.745-13.125,37.745-29.32
			c0-16.191-16.899-29.318-37.745-29.318c-20.848,0-37.747,13.126-37.747,29.318c0,5.903,2.246,11.395,6.107,15.996L9.386,85.426
			L34.684,69.785z"/>
	</g>
</g>
</svg>
